<svg viewBox="0 0 20 20" fill="none" xmlns="http://www.w3.org/2000/svg">
<path d="M14.1667 5.83337L10.9667 10.3084" stroke="currentColor" stroke-linecap="round" stroke-linejoin="round"/>
<path d="M8.33337 11.6667C8.33337 11.2246 8.50897 10.8007 8.82153 10.4882C9.13409 10.1756 9.55801 10 10 10C10.4421 10 10.866 10.1756 11.1786 10.4882C11.4911 10.8007 11.6667 11.2246 11.6667 11.6667" stroke="currentColor" stroke-linecap="round" stroke-linejoin="round"/>
<path d="M6.66667 17.5H13.3333M16.6667 14.1667H3.33333C3.11232 14.1667 2.90036 14.0789 2.74408 13.9226C2.5878 13.7663 2.5 13.5543 2.5 13.3333V3.33333C2.5 3.11232 2.5878 2.90036 2.74408 2.74408C2.90036 2.5878 3.11232 2.5 3.33333 2.5H16.6667C16.8877 2.5 17.0996 2.5878 17.2559 2.74408C17.4122 2.90036 17.5 3.11232 17.5 3.33333V13.3333C17.5 13.5543 17.4122 13.7663 17.2559 13.9226C17.0996 14.0789 16.8877 14.1667 16.6667 14.1667ZM10.8333 14.1667H9.16667L8.33333 17.5H11.6667L10.8333 14.1667Z" stroke="currentColor" stroke-linecap="round" stroke-linejoin="round"/>
</svg>
