<svg width="92" height="30" viewBox="0 0 92 30" fill="none" xmlns="http://www.w3.org/2000/svg">
<rect width="92" height="30" rx="15" fill="black" fill-opacity="0.07"/>
<path fill-rule="evenodd" clip-rule="evenodd" d="M25.6114 21.6667C25.5974 21.6667 25.584 21.666 25.5707 21.6653C25.2694 21.6473 25.018 21.4287 24.958 21.1327L23.9327 16.088C23.8794 15.8253 23.6747 15.6207 23.412 15.5673L18.3674 14.5413C18.0714 14.482 17.8527 14.2307 17.8347 13.9293C17.8167 13.6273 18.0027 13.3513 18.2894 13.2567L28.956 9.70133C29.1954 9.62 29.4594 9.68267 29.638 9.862C29.8167 10.0407 29.8787 10.3047 29.7994 10.544L26.2434 21.2107C26.1527 21.4847 25.8967 21.6667 25.6114 21.6667Z" fill="black"/>
<mask id="mask0_1_53" style="mask-type:luminance" maskUnits="userSpaceOnUse" x="17" y="9" width="13" height="13">
<path fill-rule="evenodd" clip-rule="evenodd" d="M25.6114 21.6667C25.5974 21.6667 25.584 21.666 25.5707 21.6653C25.2694 21.6473 25.018 21.4287 24.958 21.1327L23.9327 16.088C23.8794 15.8253 23.6747 15.6207 23.412 15.5673L18.3674 14.5413C18.0714 14.482 17.8527 14.2307 17.8347 13.9293C17.8167 13.6273 18.0027 13.3513 18.2894 13.2567L28.956 9.70133C29.1954 9.62 29.4594 9.68267 29.638 9.862C29.8167 10.0407 29.8787 10.3047 29.7994 10.544L26.2434 21.2107C26.1527 21.4847 25.8967 21.6667 25.6114 21.6667Z" fill="white"/>
</mask>
<g mask="url(#mask0_1_53)">
<rect x="16.5" y="7" width="16" height="16" fill="black"/>
</g>
<path d="M40.903 20.189C40.2823 20.189 39.713 20.0817 39.195 19.867C38.677 19.6477 38.257 19.3187 37.935 18.88C37.613 18.4367 37.4427 17.8813 37.424 17.214H38.894C38.894 17.5827 38.985 17.886 39.167 18.124C39.349 18.3573 39.5893 18.5323 39.888 18.649C40.1913 18.761 40.525 18.817 40.889 18.817C41.2483 18.817 41.5657 18.7657 41.841 18.663C42.121 18.5603 42.338 18.418 42.492 18.236C42.6507 18.054 42.73 17.844 42.73 17.606C42.73 17.284 42.632 17.0297 42.436 16.843C42.24 16.6517 41.932 16.4837 41.512 16.339L39.79 15.674C39.0807 15.4033 38.5393 15.0907 38.166 14.736C37.7927 14.3767 37.606 13.882 37.606 13.252C37.606 12.5333 37.8883 11.95 38.453 11.502C39.0223 11.0493 39.818 10.823 40.84 10.823C41.8247 10.823 42.5877 11.0517 43.129 11.509C43.6703 11.9663 43.9783 12.5963 44.053 13.399H42.583C42.5177 13.0257 42.345 12.7293 42.065 12.51C41.7897 12.2907 41.3813 12.181 40.84 12.181C40.3407 12.181 39.9487 12.286 39.664 12.496C39.384 12.706 39.244 12.972 39.244 13.294C39.244 13.5647 39.3327 13.7793 39.51 13.938C39.692 14.0967 39.972 14.246 40.35 14.386L42.289 15.114C42.9517 15.3613 43.4627 15.6833 43.822 16.08C44.186 16.472 44.368 16.9667 44.368 17.564C44.368 18.0867 44.2327 18.5463 43.962 18.943C43.696 19.335 43.304 19.6407 42.786 19.86C42.2727 20.0793 41.645 20.189 40.903 20.189ZM51.3247 20V16.038C51.3247 15.4967 51.194 15.0883 50.9327 14.813C50.676 14.533 50.333 14.393 49.9037 14.393C49.5537 14.393 49.2457 14.4887 48.9797 14.68C48.7137 14.8713 48.506 15.156 48.3567 15.534C48.2074 15.912 48.1327 16.3763 48.1327 16.927H47.6217C47.6217 16.073 47.729 15.359 47.9437 14.785C48.163 14.211 48.471 13.7793 48.8677 13.49C49.269 13.196 49.7427 13.049 50.2887 13.049C50.8394 13.049 51.3014 13.1727 51.6747 13.42C52.0527 13.6673 52.3374 14.015 52.5287 14.463C52.7247 14.911 52.8227 15.436 52.8227 16.038V20H51.3247ZM46.6347 20V10.41H48.1327V20H46.6347ZM59.5523 20L59.3633 18.397V15.632C59.3633 15.1187 59.2583 14.743 59.0483 14.505C58.8383 14.267 58.4953 14.148 58.0193 14.148C57.744 14.148 57.5036 14.1877 57.2983 14.267C57.093 14.3463 56.932 14.4653 56.8153 14.624C56.7033 14.778 56.6473 14.9693 56.6473 15.198H55.0023C55.0023 14.6893 55.1236 14.2787 55.3663 13.966C55.6136 13.6487 55.9613 13.4177 56.4093 13.273C56.862 13.1237 57.3986 13.049 58.0193 13.049C58.584 13.049 59.0786 13.1423 59.5033 13.329C59.9326 13.511 60.2663 13.7957 60.5043 14.183C60.7423 14.5703 60.8613 15.0697 60.8613 15.681V20H59.5523ZM57.3123 20.189C56.7383 20.189 56.26 20.0887 55.8773 19.888C55.4993 19.6873 55.2146 19.4237 55.0233 19.097C54.832 18.7703 54.7363 18.418 54.7363 18.04C54.7363 17.606 54.8483 17.2443 55.0723 16.955C55.301 16.6657 55.6183 16.451 56.0243 16.311C56.435 16.1663 56.9133 16.094 57.4593 16.094C57.8233 16.094 58.171 16.1243 58.5023 16.185C58.8383 16.241 59.172 16.3203 59.5033 16.423V17.312C59.2373 17.2187 58.9456 17.1463 58.6283 17.095C58.3156 17.0437 58.0216 17.018 57.7463 17.018C57.3403 17.018 57.002 17.0973 56.7313 17.256C56.4653 17.41 56.3323 17.6713 56.3323 18.04C56.3323 18.3153 56.4396 18.551 56.6543 18.747C56.869 18.943 57.2096 19.041 57.6763 19.041C58.0216 19.041 58.3203 18.964 58.5723 18.81C58.8243 18.6513 59.018 18.4553 59.1533 18.222C59.2933 17.9887 59.3633 17.7577 59.3633 17.529H59.7203C59.7203 18.005 59.627 18.446 59.4403 18.852C59.2583 19.2533 58.9876 19.5777 58.6283 19.825C58.2736 20.0677 57.835 20.189 57.3123 20.189ZM63.328 20V13.21H64.826V20H63.328ZM64.441 17.004C64.441 16.1267 64.5367 15.401 64.728 14.827C64.9194 14.2483 65.1807 13.819 65.512 13.539C65.8434 13.2543 66.2214 13.112 66.646 13.112C66.772 13.112 66.8864 13.1213 66.989 13.14C67.0964 13.154 67.2037 13.1773 67.311 13.21L67.269 14.701C67.143 14.6683 67.0077 14.6427 66.863 14.624C66.723 14.6007 66.5947 14.589 66.478 14.589C66.1094 14.589 65.8014 14.6847 65.554 14.876C65.3114 15.0627 65.1294 15.3357 65.008 15.695C64.8867 16.0543 64.826 16.4907 64.826 17.004H64.441ZM71.1791 20.189C70.6004 20.189 70.0731 20.0397 69.5971 19.741C69.1258 19.4423 68.7478 19.0247 68.4631 18.488C68.1831 17.9513 68.0431 17.3283 68.0431 16.619C68.0431 15.8723 68.1831 15.233 68.4631 14.701C68.7431 14.169 69.1188 13.7607 69.5901 13.476C70.0661 13.1913 70.5958 13.049 71.1791 13.049C71.7158 13.049 72.1754 13.1563 72.5581 13.371C72.9408 13.5857 73.2488 13.875 73.4821 14.239C73.7201 14.603 73.8811 15.016 73.9651 15.478C74.0491 15.9353 74.0584 16.409 73.9931 16.899H69.2401V16.066H72.9501L72.6281 16.276C72.6421 16.038 72.6304 15.8 72.5931 15.562C72.5558 15.324 72.4834 15.107 72.3761 14.911C72.2734 14.7103 72.1264 14.5493 71.9351 14.428C71.7438 14.3067 71.5011 14.246 71.2071 14.246C70.8431 14.246 70.5351 14.337 70.2831 14.519C70.0358 14.701 69.8491 14.946 69.7231 15.254C69.5971 15.562 69.5341 15.905 69.5341 16.283V16.885C69.5341 17.291 69.5948 17.6503 69.7161 17.963C69.8374 18.2757 70.0194 18.523 70.2621 18.705C70.5048 18.887 70.8104 18.978 71.1791 18.978C71.5338 18.978 71.8278 18.8963 72.0611 18.733C72.2991 18.565 72.4484 18.3153 72.5091 17.984H74.0281C73.9581 18.4227 73.7948 18.8077 73.5381 19.139C73.2814 19.4703 72.9524 19.7293 72.5511 19.916C72.1498 20.098 71.6924 20.189 71.1791 20.189Z" fill="black"/>
</svg>
