<?xml version="1.0" standalone="no"?>
<!DOCTYPE svg PUBLIC "-//W3C//DTD SVG 20010904//EN"
 "http://www.w3.org/TR/2001/REC-SVG-20010904/DTD/svg10.dtd">
<svg version="1.0" xmlns="http://www.w3.org/2000/svg"
 width="1400.000000pt" height="1400.000000pt" viewBox="0 0 1400.000000 1400.000000"
 preserveAspectRatio="xMidYMid meet">
<metadata>
Created by potrace 1.14, written by Peter Selinger 2001-2017
</metadata>
<g transform="translate(0.000000,1400.000000) scale(0.100000,-0.100000)"
fill="#000000" stroke="none">
<path d="M12089 7940 c-3 -55 -4 -157 -1 -167 3 -9 32 -13 98 -13 l94 0 0 95
c0 52 -3 96 -7 96 -5 1 -47 2 -95 3 -72 1 -88 -2 -89 -14z"/>
<path d="M2289 7886 c-2 -2 -28 -7 -58 -10 -68 -8 -211 -56 -277 -91 -197
-109 -344 -297 -403 -515 -28 -104 -33 -139 -34 -265 -1 -138 10 -217 49 -334
23 -70 79 -178 124 -236 80 -105 256 -238 345 -262 6 -1 36 -12 68 -23 111
-40 326 -57 434 -35 15 3 44 8 63 11 94 13 253 86 345 158 84 65 175 177 217
266 20 43 58 142 58 153 0 4 -102 7 -226 7 -220 0 -227 -1 -245 -22 -11 -11
-19 -24 -19 -28 0 -12 -86 -100 -98 -100 -6 0 -12 -4 -14 -8 -6 -15 -94 -50
-143 -58 -166 -25 -299 16 -404 125 -43 44 -101 149 -101 182 0 9 -3 19 -7 23
-11 11 -14 35 -18 146 -3 95 0 126 19 210 3 14 22 57 41 97 75 153 224 236
405 226 106 -6 110 -6 110 -17 0 -5 3 -6 6 -3 11 10 123 -53 148 -84 13 -15
27 -25 30 -22 3 4 6 -1 6 -9 0 -9 3 -18 8 -20 4 -1 15 -16 24 -33 l17 -30 230
-1 c263 -2 242 -12 199 96 -76 189 -203 327 -387 420 -111 55 -230 82 -382 86
-69 2 -128 2 -130 0z"/>
<path d="M8003 7832 c-23 -2 -47 -10 -55 -19 -10 -13 -13 -100 -13 -427 l0
-411 -182 0 c-100 -1 -181 1 -178 3 2 2 -3 22 -11 44 -8 23 -16 51 -18 63 -6
31 -62 143 -91 180 -44 58 -137 145 -155 145 -5 0 -10 4 -10 8 0 18 -167 84
-250 99 -59 11 -257 9 -302 -2 -26 -7 -49 -10 -52 -7 -3 3 -6 0 -6 -7 0 -7 -4
-9 -10 -6 -12 7 -96 -28 -170 -71 -148 -87 -255 -246 -296 -444 -10 -47 -11
-275 -1 -327 17 -92 78 -237 121 -291 35 -43 112 -115 152 -142 52 -36 155
-85 199 -94 17 -3 41 -9 55 -12 61 -13 90 -15 160 -15 82 1 108 4 160 16 19 5
42 10 50 10 42 4 158 62 225 113 96 72 198 217 219 312 l5 25 -221 0 -220 -1
-22 -29 c-20 -28 -36 -45 -70 -73 -17 -14 -121 -39 -151 -36 -76 7 -135 33
-179 79 -20 20 -36 43 -36 50 0 7 -7 18 -15 25 -9 7 -14 15 -11 17 2 2 -2 24
-10 48 -10 34 -10 46 -1 52 6 4 307 7 667 8 l655 0 0 -317 c0 -207 3 -318 10
-319 12 -1 278 -1 285 0 3 1 5 144 5 318 l0 318 305 1 c168 1 325 4 350 8 94
14 207 63 265 114 61 52 138 180 151 247 2 11 8 42 13 69 5 27 9 84 9 127 0
284 -150 480 -408 535 -61 13 -152 16 -475 17 -220 1 -419 1 -442 -1z m822
-276 c107 -31 164 -84 192 -179 12 -41 14 -186 3 -202 -4 -5 -10 -23 -14 -38
-4 -16 -28 -50 -54 -75 -78 -78 -115 -85 -439 -86 -182 -1 -273 2 -274 9 -6
40 -4 581 2 585 4 3 123 5 266 4 211 -1 269 -4 318 -18z m-1825 -384 c78 -31
138 -100 147 -165 l4 -32 -269 -1 -269 0 14 43 c20 58 88 131 143 154 55 21
179 23 230 1z"/>
<path d="M9620 7822 c-12 -13 -14 -140 -15 -866 0 -468 1 -858 3 -866 2 -12
24 -15 130 -13 70 0 130 2 134 2 3 1 6 389 6 864 0 813 -1 863 -18 879 -25 23
-218 23 -240 0z"/>
<path d="M10274 7831 c-37 -7 -43 -31 -44 -162 0 -161 -3 -157 143 -157 133 1
130 -3 133 165 2 155 1 155 -124 157 -49 1 -97 -1 -108 -3z"/>
<path d="M11820 7585 l0 -100 78 1 c42 1 85 2 95 3 15 1 17 13 17 96 0 52 -3
95 -7 96 -5 1 -47 2 -96 3 l-87 1 0 -100z"/>
<path d="M12092 7675 c-6 -8 -8 -109 -3 -175 1 -13 18 -15 96 -15 l95 0 0 100
0 100 -91 0 c-50 0 -94 -4 -97 -10z"/>
<path d="M12389 7686 c-1 -1 -3 -46 -4 -101 l-1 -100 95 0 96 0 0 100 0 99
-92 1 c-51 1 -94 1 -94 1z"/>
<path d="M3937 7523 c-3 -2 -16 -6 -29 -7 -41 -5 -107 -26 -113 -36 -3 -6 -12
-10 -20 -10 -17 0 -95 -51 -95 -62 0 -5 -4 -7 -8 -4 -5 3 -29 -16 -53 -42
-140 -147 -202 -312 -202 -537 0 -113 5 -175 15 -181 4 -3 6 -9 3 -14 -6 -9
30 -130 49 -165 5 -11 10 -23 11 -27 0 -15 85 -135 117 -165 74 -73 170 -133
239 -149 67 -16 146 -30 165 -28 189 12 286 53 392 163 28 30 52 48 53 40 1
-8 1 -51 1 -96 0 -57 3 -83 11 -84 52 -5 391 -3 399 2 7 5 11 234 12 697 l1
690 -212 1 -211 2 0 -93 c0 -51 -1 -97 -1 -102 -1 -5 -17 12 -37 37 -82 105
-222 168 -386 173 -53 1 -99 0 -101 -3z m299 -373 c160 -44 253 -220 218 -412
-30 -162 -130 -260 -278 -272 -151 -12 -280 83 -320 235 -20 77 -14 202 12
269 5 14 9 27 9 30 -1 3 10 18 23 34 63 75 104 103 182 120 58 14 93 13 154
-4z"/>
<path d="M6018 7519 c-6 -4 -16 -6 -20 -3 -13 8 -90 -16 -157 -49 -58 -28
-198 -147 -186 -158 2 -3 -4 -10 -13 -16 -17 -10 -18 -3 -18 101 l1 111 -210
2 -211 3 0 -693 c0 -547 3 -693 13 -697 7 -3 101 -5 210 -5 l198 1 0 364 c1
201 5 381 9 400 4 19 19 54 32 77 47 82 121 114 274 119 58 1 110 3 115 3 8 1
11 224 6 422 -1 26 -18 33 -43 18z"/>
<path d="M12093 7413 c-5 -2 -7 -29 -6 -60 1 -32 2 -75 2 -95 l1 -36 95 1 96
1 -3 95 -3 96 -87 0 c-49 0 -91 -1 -95 -2z"/>
<path d="M10272 7339 c-43 -16 -42 -10 -40 -649 l3 -614 110 1 c61 1 121 2
135 2 l26 1 -1 615 c0 551 -2 616 -16 630 -12 12 -39 17 -108 18 -51 1 -100
-1 -109 -4z"/>
<path d="M10764 7325 c-8 -11 -14 -24 -14 -28 0 -8 73 -116 102 -152 5 -5 36
-48 71 -95 34 -47 106 -145 160 -217 62 -85 95 -137 91 -145 -5 -7 -50 -71
-100 -143 -51 -71 -108 -152 -126 -178 -18 -27 -38 -54 -43 -60 -26 -30 -155
-217 -155 -224 0 -8 317 -10 323 -2 8 10 233 348 252 376 11 18 23 31 27 30 4
-1 69 -94 145 -206 l139 -204 171 -1 c112 -1 169 2 165 9 -11 19 -47 70 -53
75 -3 3 -27 36 -53 74 -27 38 -52 74 -57 80 -25 32 -79 107 -79 111 0 3 -77
111 -108 150 -4 6 -28 40 -54 76 l-46 65 19 25 c11 13 65 85 120 159 55 74
106 142 112 150 7 8 37 49 67 90 30 41 57 77 60 80 3 3 16 20 29 38 20 28 21
37 12 60 l-11 27 -136 -1 c-107 0 -138 -4 -144 -15 -5 -8 -30 -44 -57 -80 -26
-37 -54 -75 -61 -85 -66 -97 -175 -244 -180 -244 -4 0 -45 57 -92 126 -47 70
-92 135 -100 145 -8 11 -35 49 -59 86 l-44 68 -140 0 c-127 0 -141 -2 -153
-20z"/>
</g>
</svg>
